<svg xmlns="http://www.w3.org/2000/svg" viewBox="0 0 20 24">
	<path d="M18,9v13c0,1.1-0.9,2-2,2H4c-1.1,0-2-0.9-2-2V9C0.9,9,0,8.1,0,7V5c0-1.1,0.9-2,2-2h4V2c0-1.1,0.9-2,2-2h4c1.1,0,2,0.9,2,2v1h4c1.1,0,2,0.9,2,2v2C20,8.1,19.1,9,18,9z M4,22h12V9H4V22z M12,2H8v1h4V2z M18,5h-6H8H2v2h16V5z M13,20c-0.6,0-1-0.4-1-1v-7c0-0.6,0.4-1,1-1c0.6,0,1,0.4,1,1v7C14,19.6,13.6,20,13,20z M10,20c-0.6,0-1-0.4-1-1v-7c0-0.6,0.4-1,1-1c0.6,0,1,0.4,1,1v7C11,19.6,10.6,20,10,20z M7,20c-0.6,0-1-0.4-1-1v-7c0-0.6,0.4-1,1-1s1,0.4,1,1v7C8,19.6,7.6,20,7,20z"/>
</svg>